<svg xmlns="http://www.w3.org/2000/svg" width="159.031" height="50" viewBox="0 0 159.031 50"><defs><style>.a{fill:#fff;}</style></defs><g transform="translate(-434.5 -314.781)"><path class="a" d="M444.464,314.781a1.081,1.081,0,0,0-.028.395c0,.7,0,1.408,0,2.113,0,.093,0,.186,0,.279-.007.133-.033.168-.155.19s-.263.032-.395.052a2.87,2.87,0,0,0-2.162,1.4,3.823,3.823,0,0,0-.358.8,6.562,6.562,0,0,0-.258,1.245,13.472,13.472,0,0,0-.061,1.591q0,3.149,0,6.3a10.385,10.385,0,0,1-.244,2.332,5.821,5.821,0,0,1-.645,1.665,4.029,4.029,0,0,1-1.678,1.6c-.13.066-.265.123-.4.188-.056.028-.142.034-.148.113-.008.108.1.1.165.138a.629.629,0,0,0,.11.045,4.115,4.115,0,0,1,2.269,2.337,7.593,7.593,0,0,1,.494,2,13.657,13.657,0,0,1,.073,1.631q0,2.99,0,5.979a17.047,17.047,0,0,0,.076,1.87,6.761,6.761,0,0,0,.319,1.516,2.529,2.529,0,0,0,1.916,1.733,4.819,4.819,0,0,0,.9.135.139.139,0,0,1,.149.15q0,1.3,0,2.591a.137.137,0,0,1-.153.145,7.4,7.4,0,0,1-1.23-.092,7.247,7.247,0,0,1-1.685-.462,5.135,5.135,0,0,1-2.919-3.143,8.753,8.753,0,0,1-.422-1.819,12.425,12.425,0,0,1-.086-1.67c0-2.272,0-4.544,0-6.816a9.3,9.3,0,0,0-.22-2.095,4.746,4.746,0,0,0-.484-1.26,2.937,2.937,0,0,0-2.034-1.467c-.22-.048-.447-.062-.67-.092V333.76c.17-.026.341-.051.511-.08a2.981,2.981,0,0,0,1.735-.9,3.449,3.449,0,0,0,.679-1.07,6.238,6.238,0,0,0,.421-1.775,17.883,17.883,0,0,0,.069-1.79q-.007-3.028,0-6.055a13.213,13.213,0,0,1,.08-1.629,8.607,8.607,0,0,1,.5-2.083,5.174,5.174,0,0,1,3.494-3.225c.5-.15,1.01-.215,1.517-.315a2.2,2.2,0,0,0,.638-.061Z" transform="translate(0 0)"/><path class="a" d="M1430.507,336.392c-.234.044-.472.078-.7.134a2.886,2.886,0,0,0-1.919,1.5,5.408,5.408,0,0,0-.571,1.855,11.392,11.392,0,0,0-.084,1.63q0,3.369,0,6.738a10.869,10.869,0,0,1-.314,2.683,6.48,6.48,0,0,1-.7,1.73,4.947,4.947,0,0,1-2.175,1.984,7.284,7.284,0,0,1-3.09.665c-.2,0-.231-.03-.231-.231q0-1.216,0-2.432c0-.2.019-.209.236-.229a4.672,4.672,0,0,0,1.13-.221,2.515,2.515,0,0,0,1.554-1.447,6.1,6.1,0,0,0,.407-1.658,13.73,13.73,0,0,0,.081-1.711c0-2.166,0-4.333,0-6.5a10.177,10.177,0,0,1,.242-2.293,5.661,5.661,0,0,1,.678-1.736,3.969,3.969,0,0,1,1.829-1.6c.1-.042.195-.084.291-.13.034-.016.079-.039.059-.086a.237.237,0,0,0-.076-.08.284.284,0,0,0-.072-.034,4.3,4.3,0,0,1-2.5-2.732,8.206,8.206,0,0,1-.382-1.747,14.107,14.107,0,0,1-.071-1.671q0-3.269,0-6.539a7.778,7.778,0,0,0-.24-1.972,3.977,3.977,0,0,0-.422-1.029,2.853,2.853,0,0,0-2.19-1.422c-.669-.09-.546-.015-.554-.639-.008-.664,0-1.329,0-1.993,0-.133-.01-.265-.015-.4h.4a1.47,1.47,0,0,0,.558.061c.052.01.1.023.156.031a8.153,8.153,0,0,1,1.849.46,5.088,5.088,0,0,1,2.3,1.781,6.189,6.189,0,0,1,.953,2.132,11.063,11.063,0,0,1,.316,2.722q0,3.307,0,6.615a11.069,11.069,0,0,0,.085,1.629,5.918,5.918,0,0,0,.485,1.717,2.98,2.98,0,0,0,2.157,1.722,1.081,1.081,0,0,0,.549.03Z" transform="translate(-836.976 0)"/><path class="a" d="M690.385,610.722c-.028-.079-.1-.07-.163-.088a3.028,3.028,0,0,1-2.1-3.273,3.094,3.094,0,0,1,.345-1.217,2.856,2.856,0,0,1,2.509-1.568,2.969,2.969,0,0,1,1.322.233,1.907,1.907,0,0,1,.866.693l-.552.4a.314.314,0,0,1-.173-.119,1.919,1.919,0,0,0-2.243-.357,2.339,2.339,0,0,0-1.31,1.88,2.606,2.606,0,0,0,.261,1.588,2.176,2.176,0,0,0,3.471.586c.054-.058.114-.11.171-.165a.564.564,0,0,1,.263.173c.3.248.328.21.013.532a2.325,2.325,0,0,1-1.171.64c-.087-.024-.151.047-.23.06Z" transform="translate(-215.23 -245.941)"/><path class="a" d="M494.029,314.842c0-.02,0-.04,0-.061h.638A2.2,2.2,0,0,1,494.029,314.842Z" transform="translate(-50.521 0)"/><path class="a" d="M1423.894,314.781c0,.02,0,.041,0,.061a1.47,1.47,0,0,1-.558-.061Z" transform="translate(-839.211 0)"/><path class="a" d="M711.606,644.858c.079-.013.143-.084.23-.06l.089.06Z" transform="translate(-235.176 -280.076)"/><path class="a" d="M1198.259,365.6v-.472q0-10.825,0-21.649c0-.133,0-.266.009-.4a.1.1,0,0,1,.1-.1c.053,0,.106-.008.159-.008l3.627-.037c.053,0,.106,0,.159,0a.1.1,0,0,1,.1.1c0,.093.005.186.005.279q0,15.569,0,31.138c0,.453.049.405-.4.406q-1.973,0-3.946,0h-.373q-1.6-5.557-3.188-11.074t-3.173-11.026l-.08.017v.425q0,10.566,0,21.131c0,.167.076.373-.055.492-.112.1-.305.034-.462.034q-1.714,0-3.427,0c-.106,0-.213,0-.319-.005a.118.118,0,0,1-.119-.129c0-.04,0-.08,0-.12,0-.093,0-.186,0-.279q0-15.449,0-30.9c0-.587-.088-.522.533-.523,1.275,0,2.551,0,3.826,0,.458,0,.365-.013.476.367q1.525,5.237,3.038,10.477,1.669,5.755,3.339,11.509c.033.113.069.224.1.337Z" transform="translate(-638.525 -23.869)"/><path class="a" d="M627.177,355.92q0-4.982,0-9.965a8.9,8.9,0,0,1,.173-1.9,5.168,5.168,0,0,1,3.033-3.8,8.643,8.643,0,0,1,2.209-.645,15.469,15.469,0,0,1,3.416-.142,10.1,10.1,0,0,1,3.11.622,5.988,5.988,0,0,1,1.59.894,5.137,5.137,0,0,1,1.791,2.89,8.205,8.205,0,0,1,.223,1.935c0,1.408,0,2.817,0,4.225q0,7.952,0,15.9a8.237,8.237,0,0,1-.3,2.323,5.081,5.081,0,0,1-2.584,3.187,7.92,7.92,0,0,1-2.331.778,15.012,15.012,0,0,1-4.167.144,9.464,9.464,0,0,1-2.443-.536c-.2-.075-.4-.154-.587-.245a5.16,5.16,0,0,1-2.954-3.726,8.745,8.745,0,0,1-.183-1.939q0-3.866,0-7.733Q627.177,357.056,627.177,355.92Zm10.938.032q0-4.881,0-9.763c0-.173,0-.345,0-.518a3.1,3.1,0,0,0-.156-.9,2.106,2.106,0,0,0-1.082-1.267,2.855,2.855,0,0,0-.594-.226,5.615,5.615,0,0,0-2.055-.115,3.64,3.64,0,0,0-1.075.274,2.147,2.147,0,0,0-1.253,1.456,4.437,4.437,0,0,0-.125,1.184q0,9.843,0,19.685c0,.239.012.478.035.716a2.251,2.251,0,0,0,1.725,2.095c.076.023.152.046.23.063a6,6,0,0,0,2.06.059,3.181,3.181,0,0,0,.88-.242,2.21,2.21,0,0,0,1.336-1.669,4.65,4.65,0,0,0,.077-.951Q638.113,360.893,638.115,355.952Z" transform="translate(-163.521 -20.923)"/><path class="a" d="M997.872,356.626v15.589c0,.106,0,.213,0,.319-.012.348-.134.464-.493.474-.053,0-.106,0-.159,0h-4.065a2.644,2.644,0,0,1-.279-.005.375.375,0,0,1-.36-.358,3.971,3.971,0,0,1-.008-.4q0-5.462,0-10.924c0-.608.069-.535-.525-.535q-4.8,0-9.6,0c-.588,0-.517-.061-.518.5q0,5.5,0,11c0,.12.006.24-.005.358a.363.363,0,0,1-.36.354c-.092.009-.186,0-.279,0h-4.065a2.163,2.163,0,0,1-.318-.01.376.376,0,0,1-.328-.348,2.494,2.494,0,0,1-.007-.279q0-8.113,0-16.226c0-.414-.021-.4.386-.4,1.554,0,3.109-.022,4.663,0,3.506.061,7.012.009,10.519.028.477,0,.444.047.444-.456q0-7.136,0-14.273c0-.133,0-.266.006-.4a.384.384,0,0,1,.343-.38,1.514,1.514,0,0,1,.277-.017h4.145c.026,0,.053,0,.08,0,.392.016.508.139.515.541,0,.106,0,.213,0,.319Z" transform="translate(-459.982 -21.621)"/><path class="a" d="M762.281,356.431q0,6.159,0,12.318a8.495,8.495,0,0,1-.287,2.325,5.106,5.106,0,0,1-2.7,3.285,7.886,7.886,0,0,1-2.186.716,15,15,0,0,1-4.246.147,9.377,9.377,0,0,1-2.4-.532c-.2-.075-.4-.154-.588-.244a5.146,5.146,0,0,1-2.947-3.686,6.661,6.661,0,0,1-.18-1.38c0-.266-.012-.531-.012-.8q0-12.636,0-25.273c0-.133,0-.266.008-.4a.108.108,0,0,1,.1-.1,1.707,1.707,0,0,1,.2-.006h3.985l.159,0c.1,0,.137.064.139.154,0,.133,0,.266,0,.4q0,12.577,0,25.153a6.714,6.714,0,0,0,.048.915,2.222,2.222,0,0,0,1.55,1.937,3.363,3.363,0,0,0,.695.169,5.587,5.587,0,0,0,2.29-.116,2.228,2.228,0,0,0,1.711-1.933,4.11,4.11,0,0,0,.053-.634c0-.292,0-.585,0-.877q0-12.318,0-24.635c0-.62-.086-.53.518-.532,1.2,0,2.391,0,3.586,0,.106,0,.213,0,.319,0,.156.006.176.027.182.2,0,.106,0,.213,0,.319Z" transform="translate(-264.989 -23.778)"/><path class="a" d="M1315.135,357.821c.548-1.13,1.052-2.169,1.554-3.208l5.458-11.293c.04-.084.089-.164.123-.25a.255.255,0,0,1,.277-.173q2.291.008,4.582.008a.187.187,0,0,1,.04.01c.078.1-.008.174-.045.249q-.917,1.9-1.84,3.8l-5.6,11.535c-.185.381-.185.381,0,.764q3.677,7.576,7.353,15.153a1.106,1.106,0,0,1,.162.4c-.081.07-.177.039-.263.039q-2.152,0-4.3,0c-.066,0-.132,0-.2-.005a.142.142,0,0,1-.125-.085c-.06-.118-.118-.238-.176-.357l-6.771-13.931a3.1,3.1,0,0,0-.189-.366c-.1.021-.085.085-.087.13-.005.133,0,.266,0,.4v13.674c0,.106,0,.213,0,.319-.006.207-.017.222-.232.222q-2.092,0-4.184,0c-.172,0-.18-.012-.185-.182,0-.106,0-.213,0-.319q0-15.488,0-30.976c0-.546-.068-.476.5-.478,1.209,0,2.418,0,3.626,0,.066,0,.133,0,.2,0,.275.005.276.005.28.3,0,.093,0,.186,0,.279q0,6.917,0,13.833A1.48,1.48,0,0,0,1315.135,357.821Z" transform="translate(-743.432 -23.862)"/><path class="a" d="M506.948,356.667c.279-.89.549-1.751.817-2.612q1.761-5.665,3.522-11.329c.024-.076.054-.15.072-.228a.179.179,0,0,1,.2-.151c.066,0,.133,0,.2,0H515.9c.08,0,.159,0,.239,0a.1.1,0,0,1,.089.139c-.032.1-.068.2-.106.3l-2.482,6.51q-2.141,5.618-4.284,11.235a2.007,2.007,0,0,0-.138.735q.006,6.28,0,12.559c0,.556.077.474-.49.476-1.222,0-2.444,0-3.667,0h-.383a.686.686,0,0,1-.057-.412c0-.784,0-1.568,0-2.352q0-5.123,0-10.247a2.227,2.227,0,0,0-.149-.814q-3.364-8.837-6.721-17.677c-.038-.1-.076-.2-.108-.3s.006-.15.11-.156c.066,0,.133,0,.2,0h4.145c.053,0,.106,0,.159,0,.174.007.194.018.249.193q.28.893.555,1.787,1.848,5.971,3.7,11.941A.779.779,0,0,0,506.948,356.667Z" transform="translate(-53.586 -23.394)"/><path class="a" d="M1135.1,358.9q0-7.752,0-15.505c0-.56-.068-.493.479-.494q1.833,0,3.666,0c.093,0,.186,0,.279,0,.149.007.176.036.182.2,0,.106,0,.213,0,.319q0,15.465,0,30.93c0,.58.076.506-.5.508-1.222,0-2.444,0-3.666,0-.106,0-.212,0-.318,0-.081,0-.114-.053-.115-.128,0-.12,0-.239,0-.359q0-6.079,0-12.157Z" transform="translate(-594.586 -23.866)"/><path class="a" d="M897.554,400.182q0-6.1,0-12.194c0-.554-.064-.495.481-.5q2.251,0,4.5,0c.363,0,.356,0,.354.345,0,.066,0,.133,0,.2q0,12.134,0,24.268c0,.12-.008.24,0,.358a.435.435,0,0,1-.43.431c-.066,0-.133,0-.2,0h-4.1a2.246,2.246,0,0,1-.239,0,.372.372,0,0,1-.361-.357c-.012-.118-.006-.239-.006-.358Q897.553,406.279,897.554,400.182Z" transform="translate(-392.986 -61.708)"/><path class="a" d="M867.645,345.874h-7.691c-.12,0-.24.007-.358-.005a.4.4,0,0,1-.381-.389,2.292,2.292,0,0,1,0-.239q0-2.173,0-4.345c0-.532.116-.644.664-.645q1.455,0,2.909,0h12.553a3.112,3.112,0,0,1,.4.011.382.382,0,0,1,.365.4c.006.079,0,.159,0,.239q0,2.173,0,4.345c0,.093,0,.187,0,.279a.347.347,0,0,1-.325.343,2.816,2.816,0,0,1-.358.009Z" transform="translate(-360.445 -21.614)"/><path class="a" d="M981.851,346.833q0,2.968,0,5.936c0,.464.035.436-.424.436h-4.5c-.463,0-.438.034-.438-.424q0-4.024,0-8.047,0-1.872,0-3.745c0-.106,0-.213,0-.319a.4.4,0,0,1,.366-.4,1.188,1.188,0,0,1,.2-.011q2.111,0,4.221,0a1.183,1.183,0,0,1,.276.026.353.353,0,0,1,.291.334c.01.119.005.239.006.358Q981.852,343.905,981.851,346.833Z" transform="translate(-459.977 -21.621)"/><path class="a" d="M1195.1,610.1a.962.962,0,0,0,.2-.374q.815-1.86,1.623-3.723c.048-.109.1-.218.147-.327a.131.131,0,0,1,.123-.083c.279,0,.558,0,.836,0,.06,0,.085.053.087.11q0,.119,0,.239,0,2.571,0,5.143c0,.067,0,.133,0,.2-.007.153-.03.175-.193.182-.053,0-.106,0-.159,0-.368.005-.351-.009-.351-.349q0-1.993,0-3.987c0-.129-.007-.257-.011-.391-.143.021-.139.133-.172.209q-.873,2.03-1.74,4.062c-.031.073-.06.147-.093.22-.1.234-.139.252-.39.235a.186.186,0,0,1-.185-.121c-.043-.111-.1-.219-.142-.329q-.845-1.977-1.69-3.954a1.321,1.321,0,0,0-.222-.4c-.006.206-.013.332-.013.457q0,1.973,0,3.947c0,.42.043.4-.417.4-.053,0-.106,0-.159,0a.122.122,0,0,1-.129-.121c0-.08,0-.159,0-.239q0-2.572,0-5.143c0-.066,0-.133,0-.2.006-.141.029-.172.155-.174.252,0,.5,0,.757,0a.187.187,0,0,1,.186.121c.038.085.071.172.108.257q.83,1.918,1.663,3.835C1194.97,609.9,1194.978,610.035,1195.1,610.1Z" transform="translate(-642.924 -246.801)"/><path class="a" d="M942.5,605.625a.35.35,0,0,1,.24-.05h2.033a2.938,2.938,0,0,1,1.618.483,2.706,2.706,0,0,1,1.235,2.126,3.157,3.157,0,0,1-.176,1.452,2.737,2.737,0,0,1-2.221,1.777,2.7,2.7,0,0,1-.476.044c-.677.005-1.355,0-2.033,0-.027,0-.053,0-.08,0-.09-.006-.151-.044-.153-.143q0-.08,0-.159,0-2.671,0-5.343C942.489,605.747,942.5,605.681,942.5,605.625Zm.691,2.87q0,.935,0,1.871c0,.093,0,.186,0,.279s.045.151.141.15a13.443,13.443,0,0,0,1.67-.028,1.967,1.967,0,0,0,1.823-1.624,3.247,3.247,0,0,0,.036-.991,1.964,1.964,0,0,0-1.633-1.851,10.356,10.356,0,0,0-1.9-.072.113.113,0,0,0-.13.117c0,.093,0,.185,0,.278Q943.193,607.559,943.193,608.495Z" transform="translate(-431.122 -246.792)"/><path class="a" d="M817.893,611.464c-.08,0-.16,0-.239,0a.2.2,0,0,1-.209-.148c-.146-.356-.3-.709-.435-1.069a.325.325,0,0,0-.355-.24q-1.215.014-2.43,0a.321.321,0,0,0-.354.241c-.131.347-.287.685-.426,1.03a.244.244,0,0,1-.264.188c-.146-.009-.292,0-.438,0-.109,0-.145-.055-.1-.151.158-.365.319-.729.479-1.093L815,605.957c.037-.085.081-.168.112-.255a.178.178,0,0,1,.184-.121h.08c.535.01.42-.077.629.412q1.1,2.58,2.2,5.163c.129.3.127.305-.187.309h-.119Zm-2.419-4.911c-.141.23-.911,1.989-1.142,2.616a.8.8,0,0,0-.026.146c.037.018.059.038.082.038q1.074,0,2.148,0a.066.066,0,0,0,.037-.012c.008-.006.011-.02.016-.031C816.453,608.854,815.627,606.818,815.474,606.553Z" transform="translate(-320.907 -246.798)"/><path class="a" d="M565.023,611.461a1.986,1.986,0,0,0-.2,0,.239.239,0,0,1-.269-.18c-.143-.357-.3-.71-.437-1.068a.279.279,0,0,0-.293-.207q-1.255.008-2.51,0a.274.274,0,0,0-.3.2c-.134.346-.3.681-.427,1.029a.3.3,0,0,1-.358.229,1.772,1.772,0,0,0-.2,0c-.33,0-.333,0-.205-.294q.9-2.059,1.811-4.117c.192-.437.391-.872.577-1.311a.224.224,0,0,1,.237-.164c.6.013.46-.085.687.445q1.065,2.488,2.121,4.979c.047.11.093.22.137.331.029.073-.008.123-.094.126s-.186,0-.279,0Zm-3.583-2.133a18.511,18.511,0,0,0,2.278-.015,6.873,6.873,0,0,0-.345-.92c-.125-.321-.252-.64-.384-.957a6.45,6.45,0,0,0-.409-.933c-.392.933-.766,1.822-1.137,2.711A.319.319,0,0,0,561.44,609.327Z" transform="translate(-106.296 -246.793)"/><path class="a" d="M1072.416,610.791c.182,0,.313.01.444.011h2.271c.093,0,.186,0,.279,0,.125.006.154.039.159.176,0,.093,0,.186,0,.279,0,.052-.01.1-.015.148a.319.319,0,0,1-.236.057h-3.346c-.04,0-.08,0-.119,0a.121.121,0,0,1-.128-.122c0-.08-.005-.159-.005-.239q0-2.59,0-5.18a.539.539,0,0,1,.045-.323c.07-.005.148-.017.226-.017q1.554,0,3.107,0c.066,0,.133,0,.2.005a.115.115,0,0,1,.117.128c0,.013,0,.026,0,.04,0,.537.065.475-.454.477-.73,0-1.46,0-2.191,0-.08,0-.159,0-.239,0s-.112.055-.116.129c0,.013,0,.026,0,.04,0,.5,0,1.009,0,1.514a.463.463,0,0,0,.028.111.881.881,0,0,0,.4.035c.651,0,1.3,0,1.952,0h.279c.073,0,.131.029.135.111a1.471,1.471,0,0,1-.02.5.817.817,0,0,1-.364.032c-.664,0-1.328,0-1.992,0q-.139,0-.279,0a.13.13,0,0,0-.133.119.226.226,0,0,0,0,.04Z" transform="translate(-540.797 -246.797)"/><path class="a" d="M1329.767,605.481a.977.977,0,0,1-.2.4c-.579.889-1.158,1.779-1.746,2.662a1.044,1.044,0,0,0-.191.629c.013.65.006,1.3,0,1.951,0,.235-.006.241-.251.24-.49,0-.44.055-.442-.451,0-.571-.008-1.142,0-1.712a1.1,1.1,0,0,0-.194-.669c-.585-.869-1.153-1.75-1.727-2.627-.065-.1-.13-.2-.192-.3a.075.075,0,0,1,.057-.115,1.121,1.121,0,0,1,.159-.007c.2.011.424-.071.584.041a1.467,1.467,0,0,1,.315.449q.559.894,1.114,1.791c.056.09.115.178.175.265a.062.062,0,0,0,.1.006,3.049,3.049,0,0,0,.182-.26c.444-.692.89-1.383,1.328-2.079a.372.372,0,0,1,.381-.217C1329.393,605.494,1329.565,605.481,1329.767,605.481Z" transform="translate(-755.598 -246.698)"/></g></svg>